# xmcd CD database file
#
# Track frame offsets:
#	150
#	14815
#	28607
#	43128
#	56989
#	70160
#	84719
#	99673
#	113934
#	127595
#	141339
#	155237
#	170404
#	182666
#	197159
#	211954
#	227705
#	240372
#	253265
#	268035
#	282985
#	296186
#	310874
#
# Disc length: 4319 seconds
#
# Revision: 3
# Processed by: cddbd v1.5.2PL0 Copyright (c) Steve Scherf et al.
# Submitted via: CDex 1.51
#
DISCID=6410dd17
DTITLE=Various Artist - The Golden Age of Swing - Vol.1  {1929-1939}
DYEAR=1995
DGENRE=Jazz
TTITLE0=Count Basie - Every Tub   [1938]
TTITLE1=Count Basie - Jumpin' At The Woodside   [1938]
TTITLE2=Duke Ellington - It's A Glory   [1931]
TTITLE3=Duke Ellington - Stompy Jones   [1934]
TTITLE4=Duke Ellington - Jazz Pot-Pourri   [1938]
TTITLE5=Erskine Hawkins - Gin Mill Special   [1939]
TTITLE6=Erskine Hawkins - Tuxedo Junction   [1939]
TTITLE7=Fletcher Henderson - Shanghai Shuffle   [1934]
TTITLE8=Fletcher Henderson - Christopher Columbus   [1936]
TTITLE9=Teddy Hill - King Porter Stomp   [1937]
TTITLE10=Andy Kirk - Wednesday Night Hop   [1937]
TTITLE11=Andy Kirk - A Mellow Bit Of Rhythm   [1937]
TTITLE12=Jimmie Lunceford - For Dancers Only   [1937]
TTITLE13=Jimmie Lunceford - Annie Laurie   [1937]
TTITLE14=Mckinney's Cotton Pickers - Peggy   [1929]
TTITLE15=Bennie Moten - Toby   [1932]
TTITLE16=Bennie Moten - Lafayette   [1932]
TTITLE17=Don Redman - Hot And Anxious   [1932]
TTITLE18=Don Redman - I Got Rhythm   [1932]
TTITLE19=Luis Russell - Panama   [1930]
TTITLE20=Luis Russell - Ease On Down   [1930]
TTITLE21=Chick Webb - Dipsy Doodle   [1937]
TTITLE22=Chick Webb - Who Ya Hubchin'   [1938]
EXTD=YEAR: 1995
EXTT0=
EXTT1=
EXTT2=
EXTT3=
EXTT4=
EXTT5=
EXTT6=
EXTT7=
EXTT8=
EXTT9=
EXTT10=
EXTT11=
EXTT12=
EXTT13=
EXTT14=
EXTT15=
EXTT16=
EXTT17=
EXTT18=
EXTT19=
EXTT20=
EXTT21=
EXTT22=
PLAYORDER=
